<svg width="42" height="58" viewBox="0 0 42 58" fill="none" xmlns="http://www.w3.org/2000/svg">
<g clip-path="url(#clip0_73_2)">
<path fill-rule="evenodd" clip-rule="evenodd" d="M19.3418 2.02572L17.1578 2.77772C17.0553 2.81269 16.9442 2.81269 16.8418 2.77772L14.6578 2.02572C14.5026 1.97397 14.332 2.00133 14.2009 2.099C14.0697 2.19666 13.9946 2.35228 13.9998 2.51572L13.9998 9.99872L19.9998 9.99872V2.51572C20.0049 2.35228 19.9298 2.19666 19.7986 2.099C19.6675 2.00133 19.4969 1.97397 19.3418 2.02572Z" fill="#807373"/>
<path fill-rule="evenodd" clip-rule="evenodd" d="M14.3418 4.02572L12.1578 4.77772C12.0553 4.81269 11.9442 4.81269 11.8418 4.77772L9.65776 4.02572C9.50265 3.97397 9.33203 4.00133 9.20088 4.099C9.06973 4.19666 8.99462 4.35228 8.99976 4.51572L8.99976 11.9987L14.9998 11.9987L14.9998 4.51572C15.0049 4.35228 14.9298 4.19666 14.7986 4.099C14.6675 4.00133 14.4969 3.97397 14.3418 4.02572Z" fill="#A59E9E"/>
<path fill-rule="evenodd" clip-rule="evenodd" d="M22.3418 3.02576L20.1578 3.77776C20.0553 3.81273 19.9442 3.81273 19.8418 3.77776L17.6578 3.02576C17.5026 2.974 17.332 3.00137 17.2009 3.09903C17.0697 3.1967 16.9946 3.35232 16.9998 3.51575L16.9998 10.9988L22.9998 10.9988V3.51575C23.0049 3.35232 22.9298 3.1967 22.7986 3.09903C22.6675 3.00137 22.4969 2.974 22.3418 3.02576Z" fill="#BFBEBB"/>
<path fill-rule="evenodd" clip-rule="evenodd" d="M1.04762 58L37.7143 58C41.1858 58 44 55.3137 44 52L44 12C44 8.68629 41.1858 6 37.7143 6L1.04762 6C0.469035 6 0 6.44772 0 7L0 57C0 57.5523 0.469035 58 1.04762 58Z" fill="url(#paint0_linear_73_2)"/>
<path fill-rule="evenodd" clip-rule="evenodd" d="M8 58L8 6H1C0.447715 6 0 6.44772 0 7L0 57C0 57.5523 0.447715 58 1 58H8Z" fill="url(#paint1_linear_73_2)"/>
<path fill-rule="evenodd" clip-rule="evenodd" d="M38 42C37.4477 42 37 42.4477 37 43V45C37 45.5523 37.4477 46 38 46C38.5523 46 39 45.5523 39 45V43C39 42.4477 38.5523 42 38 42Z" fill="#777777"/>
<path fill-rule="evenodd" clip-rule="evenodd" d="M38 48C37.4477 48 37 48.4477 37 49V52C37 52.5523 36.5523 53 36 53H32C31.4477 53 31 53.4477 31 54C31 54.5523 31.4477 55 32 55H36C37.6569 55 39 53.6569 39 52V49C39 48.4477 38.5523 48 38 48Z" fill="#777777"/>
<path fill-rule="evenodd" clip-rule="evenodd" d="M4 11C3.44772 11 3 11.4477 3 12L3 24C3 24.5523 3.44772 25 4 25C4.55228 25 5 24.5523 5 24L5 12C5 11.4477 4.55228 11 4 11Z" fill="#777777"/>
<path fill-rule="evenodd" clip-rule="evenodd" d="M4 27C3.44772 27 3 27.4477 3 28L3 30C3 30.5523 3.44772 31 4 31C4.55228 31 5 30.5523 5 30L5 28C5 27.4477 4.55228 27 4 27Z" fill="#777777"/>
<path d="M42 28L8 28L8 16L42 16V28Z" fill="url(#paint2_linear_73_2)"/>
<path fill-rule="evenodd" clip-rule="evenodd" d="M31 23L15 23C14.4477 23 14 23.4477 14 24C14 24.5523 14.4477 25 15 25L31 25C31.5523 25 32 24.5523 32 24C32 23.4477 31.5523 23 31 23Z" fill="#B6B6B6"/>
<path fill-rule="evenodd" clip-rule="evenodd" d="M24 19L15 19C14.4477 19 14 19.4477 14 20C14 20.5523 14.4477 21 15 21L24 21C24.5523 21 25 20.5523 25 20C25 19.4477 24.5523 19 24 19Z" fill="#B6B6B6"/>
<path fill-rule="evenodd" clip-rule="evenodd" d="M29 19H28C27.4477 19 27 19.4477 27 20C27 20.5523 27.4477 21 28 21H29C29.5523 21 30 20.5523 30 20C30 19.4477 29.5523 19 29 19Z" fill="#B6B6B6"/>
</g>
<defs>
<linearGradient id="paint0_linear_73_2" x1="32.5" y1="-2" x2="2" y2="66.5" gradientUnits="userSpaceOnUse">
<stop stop-color="#676767"/>
<stop offset="1" stop-color="#565656"/>
</linearGradient>
<linearGradient id="paint1_linear_73_2" x1="-11" y1="59" x2="10.5" y2="2.5" gradientUnits="userSpaceOnUse">
<stop stop-color="#424242"/>
<stop offset="1" stop-color="#5F5F5F"/>
</linearGradient>
<linearGradient id="paint2_linear_73_2" x1="14.5" y1="38.5" x2="28.5" y2="14.5" gradientUnits="userSpaceOnUse">
<stop stop-color="#CDCDCD"/>
<stop offset="1" stop-color="#EAEAEA"/>
</linearGradient>
<clipPath id="clip0_73_2">
<rect width="42" height="58" fill="white" transform="matrix(1 0 0 -1 0 58)"/>
</clipPath>
</defs>
</svg>
